<svg height="2110" width="720" xmlns="http://www.w3.org/2000/svg">
<rect height="2110" fill="#555" width="720"></rect>
<text fill="#7f7" font-family="Courier New" font-size="12" xml:space="preserve">
<tspan x="10" y="26">└─┬ handlebars-helpers@0.8.2 </tspan>
<tspan x="10" y="42">  ├─┬ arr-filter@1.1.2 </tspan>
<tspan x="10" y="58">  │ └── make-iterator@1.0.0 </tspan>
<tspan x="10" y="74">  ├── arr-flatten@1.0.1 </tspan>
<tspan x="10" y="90">  ├─┬ array-sort@0.1.2 </tspan>
<tspan x="10" y="106">  │ └── kind-of@2.0.1 </tspan>
<tspan x="10" y="122">  ├─┬ create-frame@1.0.0 </tspan>
<tspan x="10" y="138">  │ ├── extend-shallow@2.0.1 </tspan>
<tspan x="10" y="154">  │ └── isobject@3.0.0 </tspan>
<tspan x="10" y="170">  ├─┬ define-property@0.2.5 </tspan>
<tspan x="10" y="186">  │ └─┬ is-descriptor@0.1.5 </tspan>
<tspan x="10" y="202">  │   ├── is-accessor-descriptor@0.1.6 </tspan>
<tspan x="10" y="218">  │   └── is-data-descriptor@0.1.4 </tspan>
<tspan x="10" y="234">  ├── for-in@0.1.8 </tspan>
<tspan x="10" y="250">  ├─┬ for-own@0.1.5 </tspan>
<tspan x="10" y="266">  │ └── for-in@1.0.2 </tspan>
<tspan x="10" y="282">  ├─┬ get-object@0.2.0 </tspan>
<tspan x="10" y="298">  │ ├── is-number@2.1.0 </tspan>
<tspan x="10" y="314">  │ └── isobject@0.2.0 </tspan>
<tspan x="10" y="330">  ├── get-value@2.0.6 </tspan>
<tspan x="10" y="346">  ├─┬ handlebars@4.0.6 </tspan>
<tspan x="10" y="362">  │ ├── async@1.5.2 </tspan>
<tspan x="10" y="378">  │ ├─┬ optimist@0.6.1 </tspan>
<tspan x="10" y="394">  │ │ ├── minimist@0.0.10 </tspan>
<tspan x="10" y="410">  │ │ └── wordwrap@0.0.3 </tspan>
<tspan x="10" y="426">  │ ├─┬ source-map@0.4.4 </tspan>
<tspan x="10" y="442">  │ │ └── amdefine@1.0.1 </tspan>
<tspan x="10" y="458">  │ └─┬ uglify-js@2.8.21 </tspan>
<tspan x="10" y="474">  │   ├── source-map@0.5.6 </tspan>
<tspan x="10" y="490">  │   ├── uglify-to-browserify@1.0.2 </tspan>
<tspan x="10" y="506">  │   └─┬ yargs@3.10.0 </tspan>
<tspan x="10" y="522">  │     ├── camelcase@1.2.1 </tspan>
<tspan x="10" y="538">  │     ├─┬ cliui@2.1.0 </tspan>
<tspan x="10" y="554">  │     │ ├─┬ center-align@0.1.3 </tspan>
<tspan x="10" y="570">  │     │ │ ├─┬ align-text@0.1.4 </tspan>
<tspan x="10" y="586">  │     │ │ │ └── longest@1.0.1 </tspan>
<tspan x="10" y="602">  │     │ │ └── lazy-cache@1.0.4 </tspan>
<tspan x="10" y="618">  │     │ ├── right-align@0.1.3 </tspan>
<tspan x="10" y="634">  │     │ └── wordwrap@0.0.2 </tspan>
<tspan x="10" y="650">  │     ├── decamelize@1.2.0 </tspan>
<tspan x="10" y="666">  │     └── window-size@0.1.0 </tspan>
<tspan x="10" y="682">  ├─┬ helper-date@0.2.3 </tspan>
<tspan x="10" y="698">  │ ├─┬ date.js@0.3.1 </tspan>
<tspan x="10" y="714">  │ │ ├── debug@0.7.4 </tspan>
<tspan x="10" y="730">  │ │ ├── lodash.filter@4.6.0 </tspan>
<tspan x="10" y="746">  │ │ ├── lodash.findkey@4.6.0 </tspan>
<tspan x="10" y="762">  │ │ ├── lodash.foreach@4.5.0 </tspan>
<tspan x="10" y="778">  │ │ ├── lodash.includes@4.3.0 </tspan>
<tspan x="10" y="794">  │ │ ├── lodash.isempty@4.4.0 </tspan>
<tspan x="10" y="810">  │ │ ├── lodash.partition@4.6.0 </tspan>
<tspan x="10" y="826">  │ │ └── lodash.trim@4.5.1 </tspan>
<tspan x="10" y="842">  │ └── moment@2.18.1 </tspan>
<tspan x="10" y="858">  ├─┬ helper-markdown@0.2.1 </tspan>
<tspan x="10" y="874">  │ ├─┬ isobject@2.1.0 </tspan>
<tspan x="10" y="890">  │ │ └── isarray@1.0.0 </tspan>
<tspan x="10" y="906">  │ └─┬ remarkable@1.7.1 </tspan>
<tspan x="10" y="922">  │   ├─┬ argparse@0.1.16 </tspan>
<tspan x="10" y="938">  │   │ ├── underscore@1.7.0 </tspan>
<tspan x="10" y="954">  │   │ └── underscore.string@2.4.0 </tspan>
<tspan x="10" y="970">  │   └── autolinker@0.15.3 </tspan>
<tspan x="10" y="986">  ├─┬ helper-md@0.2.2 </tspan>
<tspan x="10" y="1002">  │ ├── ent@2.2.0 </tspan>
<tspan x="10" y="1018">  │ └── fs-exists-sync@0.1.0 </tspan>
<tspan x="10" y="1034">  ├─┬ html-tag@1.0.0 </tspan>
<tspan x="10" y="1050">  │ └── void-elements@2.0.1 </tspan>
<tspan x="10" y="1066">  ├── index-of@0.2.0 </tspan>
<tspan x="10" y="1082">  ├─┬ is-even@0.1.1 </tspan>
<tspan x="10" y="1098">  │ └── is-number@1.1.2 </tspan>
<tspan x="10" y="1114">  ├─┬ is-glob@3.1.0 </tspan>
<tspan x="10" y="1130">  │ └── is-extglob@2.1.1 </tspan>
<tspan x="10" y="1146">  ├── is-number@3.0.0 </tspan>
<tspan x="10" y="1162">  ├─┬ is-odd@0.1.1 </tspan>
<tspan x="10" y="1178">  │ └── is-number@1.1.2 </tspan>
<tspan x="10" y="1194">  ├─┬ kind-of@3.1.0 </tspan>
<tspan x="10" y="1210">  │ └── is-buffer@1.1.5 </tspan>
<tspan x="10" y="1226">  ├─┬ lazy-cache@2.0.2 </tspan>
<tspan x="10" y="1242">  │ └─┬ set-getter@0.1.0 </tspan>
<tspan x="10" y="1258">  │   └── to-object-path@0.3.0 </tspan>
<tspan x="10" y="1274">  ├─┬ logging-helpers@0.4.0 </tspan>
<tspan x="10" y="1290">  │ └─┬ chalk@1.1.3 </tspan>
<tspan x="10" y="1306">  │   ├── ansi-styles@2.2.1 </tspan>
<tspan x="10" y="1322">  │   ├── escape-string-regexp@1.0.5 </tspan>
<tspan x="10" y="1338">  │   ├─┬ has-ansi@2.0.0 </tspan>
<tspan x="10" y="1354">  │   │ └── ansi-regex@2.1.1 </tspan>
<tspan x="10" y="1370">  │   ├── strip-ansi@3.0.1 </tspan>
<tspan x="10" y="1386">  │   └── supports-color@2.0.0 </tspan>
<tspan x="10" y="1402">  ├── make-iterator@0.3.1 </tspan>
<tspan x="10" y="1418">  ├─┬ micromatch@2.3.11 </tspan>
<tspan x="10" y="1434">  │ ├── arr-diff@2.0.0 </tspan>
<tspan x="10" y="1450">  │ ├── array-unique@0.2.1 </tspan>
<tspan x="10" y="1466">  │ ├─┬ braces@1.8.5 </tspan>
<tspan x="10" y="1482">  │ │ ├─┬ expand-range@1.8.2 </tspan>
<tspan x="10" y="1498">  │ │ │ └─┬ fill-range@2.2.3 </tspan>
<tspan x="10" y="1514">  │ │ │   ├── is-number@2.1.0 </tspan>
<tspan x="10" y="1530">  │ │ │   ├── isobject@2.1.0 </tspan>
<tspan x="10" y="1546">  │ │ │   ├─┬ randomatic@1.1.6 </tspan>
<tspan x="10" y="1562">  │ │ │   │ └── is-number@2.1.0 </tspan>
<tspan x="10" y="1578">  │ │ │   └── repeat-string@1.6.1 </tspan>
<tspan x="10" y="1594">  │ │ ├── preserve@0.2.0 </tspan>
<tspan x="10" y="1610">  │ │ └── repeat-element@1.1.2 </tspan>
<tspan x="10" y="1626">  │ ├─┬ expand-brackets@0.1.5 </tspan>
<tspan x="10" y="1642">  │ │ └── is-posix-bracket@0.1.1 </tspan>
<tspan x="10" y="1658">  │ ├─┬ extglob@0.3.2 </tspan>
<tspan x="10" y="1674">  │ │ └── is-extglob@1.0.0 </tspan>
<tspan x="10" y="1690">  │ ├── filename-regex@2.0.0 </tspan>
<tspan x="10" y="1706">  │ ├── is-extglob@1.0.0 </tspan>
<tspan x="10" y="1722">  │ ├── is-glob@2.0.1 </tspan>
<tspan x="10" y="1738">  │ ├── object.omit@2.0.1 </tspan>
<tspan x="10" y="1754">  │ ├─┬ parse-glob@3.0.4 </tspan>
<tspan x="10" y="1770">  │ │ ├─┬ glob-base@0.3.0 </tspan>
<tspan x="10" y="1786">  │ │ │ ├─┬ glob-parent@2.0.0 </tspan>
<tspan x="10" y="1802">  │ │ │ │ └─┬ is-glob@2.0.1 </tspan>
<tspan x="10" y="1818">  │ │ │ │   └── is-extglob@1.0.0 </tspan>
<tspan x="10" y="1834">  │ │ │ └─┬ is-glob@2.0.1 </tspan>
<tspan x="10" y="1850">  │ │ │   └── is-extglob@1.0.0 </tspan>
<tspan x="10" y="1866">  │ │ ├── is-dotfile@1.0.2 </tspan>
<tspan x="10" y="1882">  │ │ ├── is-extglob@1.0.0 </tspan>
<tspan x="10" y="1898">  │ │ └── is-glob@2.0.1 </tspan>
<tspan x="10" y="1914">  │ └─┬ regex-cache@0.4.3 </tspan>
<tspan x="10" y="1930">  │   ├── is-equal-shallow@0.1.3 </tspan>
<tspan x="10" y="1946">  │   └── is-primitive@2.0.0 </tspan>
<tspan x="10" y="1962">  ├─┬ mixin-deep@1.2.0 </tspan>
<tspan x="10" y="1978">  │ ├── for-in@1.0.2 </tspan>
<tspan x="10" y="1994">  │ └── is-extendable@0.1.1 </tspan>
<tspan x="10" y="2010">  ├─┬ normalize-path@2.1.1 </tspan>
<tspan x="10" y="2026">  │ └── remove-trailing-separator@1.0.1 </tspan>
<tspan x="10" y="2042">  ├─┬ relative@3.0.2 </tspan>
<tspan x="10" y="2058">  │ └── isobject@2.1.0 </tspan>
<tspan x="10" y="2074">  ├── striptags@2.2.1 </tspan>
<tspan x="10" y="2090">  └── to-gfm-code-block@0.1.1</tspan>
</text>
</svg>
